<svg width="28" height="28" viewBox="0 0 28 28" fill="none" xmlns="http://www.w3.org/2000/svg">
<path d="M14 28C21.732 28 28 21.732 28 14C28 6.26801 21.732 0 14 0C6.26801 0 0 6.26801 0 14C0 21.732 6.26801 28 14 28Z" fill="#F8B84E"/>
<path d="M14 24.887C20.0128 24.887 24.887 20.0127 24.887 14C24.887 7.98728 20.0128 3.11304 14 3.11304C7.98731 3.11304 3.11304 7.98728 3.11304 14C3.11304 20.0127 7.98731 24.887 14 24.887Z" fill="#FCD062"/>
<path d="M13 7.00195H15V21.002H13V7.00195Z" fill="#F8B84E"/>
<path d="M13 9.00098C11.93 9.00098 10.936 9.57398 10.4 10.501C10.137 10.9572 9.99866 11.4744 9.99866 12.001C9.99866 12.5275 10.137 13.0448 10.4 13.501C10.936 14.428 11.93 15.001 13 15.001V13.001C12.8241 13.0018 12.6512 12.9561 12.4987 12.8685C12.3461 12.781 12.2195 12.6547 12.1315 12.5024C12.0435 12.3502 11.9972 12.1774 11.9975 12.0016C11.9978 11.8257 12.0445 11.653 12.133 11.501C12.313 11.191 12.641 11.001 13 11.001V9.00098ZM15 13.001C16.07 13.001 17.063 13.574 17.598 14.501C17.8609 14.9572 17.9993 15.4744 17.9993 16.001C17.9993 16.5275 17.8609 17.0448 17.598 17.501C17.3344 17.9568 16.9557 18.3354 16.4997 18.5986C16.0437 18.8619 15.5265 19.0007 15 19.001V17.001C15.359 17.001 15.686 16.812 15.865 16.501C16.045 16.191 16.045 15.812 15.865 15.501C15.7777 15.3488 15.6517 15.2223 15.4998 15.1345C15.3479 15.0467 15.1754 15.0006 15 15.001V13.001Z" fill="#F8B84E"/>
<path d="M18 9.00195V11.0009H13V9.00195H18ZM15 17.002V19.002H10V17.002H15Z" fill="#F8B84E"/>
</svg>
