<svg width="32" height="32" viewBox="0 0 32 32" fill="none" xmlns="http://www.w3.org/2000/svg">
<circle cx="16" cy="16" r="16" fill="#CFCFD0"/>
<mask id="mask0_97_6508" style="mask-type:luminance" maskUnits="userSpaceOnUse" x="0" y="0" width="32" height="32">
<circle cx="16" cy="16" r="16" fill="white"/>
</mask>
<g mask="url(#mask0_97_6508)">
<path d="M-12.7486 30.146H-14.1992L-6.35549 53.2445C-6.00053 54.2898 -5.22218 55.1374 -4.21095 55.58C-3.19972 56.0226 -2.04893 56.0193 -1.04025 55.5709C-0.0194073 55.1172 0.759933 54.2502 1.10276 53.1869C1.4456 52.1237 1.31948 50.9648 0.755982 50.0002L-9.8095 31.9123L-12.7486 30.146Z" fill="#F5F6F7"/>
<path fill-rule="evenodd" clip-rule="evenodd" d="M-12.7486 30.146H-14.1992L-6.35549 53.2445C-6.00053 54.2898 -5.22218 55.1374 -4.21095 55.58C-3.19972 56.0226 -2.04893 56.0193 -1.04025 55.5709V55.5709C-0.0194075 55.1172 0.759932 54.2502 1.10276 53.1869C1.4456 52.1237 1.31948 50.9648 0.755983 50.0002L-9.8095 31.9123L-12.7486 30.146Z" stroke="#111111" stroke-width="0.617008" stroke-linecap="round" stroke-linejoin="round"/>
<path d="M-13.28 43.4365C-12.1543 39.7637 -10.2404 36.381 -7.67192 33.5244L0.0486565 44.4847C-8.1995 46.6095 3.59143 30.3891 4.64479 29.9678C5.69814 29.5464 6.584 30.8377 9.15372 47.1017C9.23113 47.5916 6.31993 63.1373 -0.853656 62.3506C-4.87671 61.9094 -13.28 43.4365 -13.28 43.4365Z" fill="white"/>
<path fill-rule="evenodd" clip-rule="evenodd" d="M-13.28 43.4365C-12.1543 39.7637 -10.2404 36.381 -7.67192 33.5244L0.0486563 44.4847C-8.1995 46.6095 3.59143 30.3891 4.64479 29.9678C5.69815 29.5464 6.584 30.8377 9.15372 47.1017C9.23113 47.5916 6.31992 63.1373 -0.853656 62.3506C-4.87671 61.9094 -13.28 43.4365 -13.28 43.4365Z" stroke="#111111" stroke-width="0.617008" stroke-linecap="round" stroke-linejoin="round"/>
<path d="M9.82148 28.0097C16.604 24.9128 24.3969 24.9128 31.1793 28.0097C33.7192 34.5903 26.2573 50.1426 28.6395 55.6017C28.6395 55.6017 14.9716 61.5604 8.27559 57.0578C6.19759 54.9797 10.911 49.1395 7.39714 43.4795C3.52298 37.2397 9.82148 28.0097 9.82148 28.0097Z" fill="#111111"/>
<mask id="mask1_97_6508" style="mask-type:luminance" maskUnits="userSpaceOnUse" x="6" y="25" width="26" height="34">
<path fill-rule="evenodd" clip-rule="evenodd" d="M9.82148 28.0097C16.604 24.9128 24.3969 24.9128 31.1793 28.0097C33.7192 34.5903 26.2573 50.1426 28.6395 55.6017C28.6395 55.6017 14.9716 61.5604 8.27559 57.0578C6.19759 54.9797 10.911 49.1395 7.39714 43.4795C3.52298 37.2397 9.82148 28.0097 9.82148 28.0097Z" fill="white"/>
</mask>
<g mask="url(#mask1_97_6508)">
<path d="M12.2278 26.5459C9.82125 36.0082 20.6767 31.0945 25.0297 25.7009C29.3828 20.3074 24.6701 21.4164 24.6701 21.4164L11.8318 25.0734" fill="#F5F6F7"/>
<path d="M12.2679 26.5563C12.0736 27.3498 11.9744 28.1635 11.9724 28.9804C11.9365 29.7819 12.225 30.564 12.7727 31.1502C13.3986 31.6369 14.1992 31.8402 14.9815 31.7113C15.7814 31.6144 16.5637 31.4061 17.3059 31.0925C18.8066 30.4694 20.2173 29.6486 21.5007 28.6518C22.7994 27.6845 23.9599 26.5444 24.9499 25.2629C25.4447 24.6394 25.8722 23.9653 26.2251 23.2518C26.3822 22.9425 26.4683 22.602 26.477 22.2551C26.4592 21.974 26.3192 21.8685 26.0037 21.7845C25.6536 21.7213 25.2949 21.7235 24.9456 21.791C24.6196 21.8518 24.1774 22.0112 23.7972 22.1097L21.4234 22.7692C18.2444 23.5968 15.0693 24.4393 11.8434 25.1132C11.8216 25.1194 11.7988 25.1068 11.7926 25.0849C11.7864 25.0631 11.799 25.0403 11.8209 25.0341C14.9185 23.907 18.0672 22.9479 21.2117 21.9743L23.581 21.2832C23.9952 21.1735 24.3306 21.0529 24.8128 20.9645C25.2739 20.8855 25.7459 20.8959 26.2031 20.9952C26.4779 21.0576 26.729 21.1975 26.9266 21.3983C27.0315 21.5106 27.114 21.6418 27.1698 21.785C27.2171 21.9194 27.2443 22.0601 27.2506 22.2025C27.2413 22.6785 27.1184 23.1454 26.892 23.5642C26.4942 24.3145 26.017 25.02 25.4688 25.6686C24.4135 26.9671 23.1858 28.1153 21.8197 29.0815C20.4775 30.071 19.009 30.8767 17.4533 31.4769C16.6683 31.7779 15.845 31.9673 15.0074 32.0397C14.1423 32.1489 13.271 31.8917 12.6039 31.3302C12.0322 30.6875 11.7452 29.8407 11.8082 28.9828C11.8373 28.1551 11.965 27.3338 12.1886 26.5363C12.1941 26.5143 12.2165 26.5009 12.2385 26.5065C12.2598 26.5129 12.2726 26.5345 12.2679 26.5563Z" fill="#111111"/>
</g>
<path d="M24.6098 13.0591C24.8363 12.5977 24.9872 12.1028 25.0566 11.5935C25.5377 7.92095 22.6389 4.94385 18.5822 4.94385C17.1795 4.95075 15.7997 5.2991 14.5618 5.95878C13.8899 5.50485 13.0951 5.26743 12.2843 5.27843C10.0407 5.24444 8.09396 6.82015 7.65973 9.02161C7.4439 10.7371 8.60395 12.323 10.3042 12.6369C10.1768 14.6923 11.5561 16.5378 13.5634 16.9976C13.4918 17.1216 13.4265 17.2457 13.362 17.3701C12.9457 17.2609 12.5183 17.1991 12.0881 17.1859C11.9766 17.1781 11.8721 17.1553 11.7575 17.1553C11.372 17.1604 10.9884 17.2093 10.614 17.301C8.02943 17.8397 5.76252 19.378 4.30716 21.5807C1.99033 25.051 2.5732 28.8874 5.6088 30.1496C8.64439 31.4118 12.9835 29.622 15.2999 26.1518C15.4926 25.8598 15.6689 25.5573 15.8279 25.2457C18.8082 26.0417 22.7235 24.2698 24.883 21.0352C26.9085 18.0014 26.7176 14.6882 24.6098 13.0591Z" fill="#111111"/>
<path d="M21.773 27.5307L21.0377 16.0972L14.721 19.7048C14.8765 20.1025 13.2414 27.1508 12.343 29.7594" fill="#F5F6F7"/>
<mask id="mask2_97_6508" style="mask-type:luminance" maskUnits="userSpaceOnUse" x="12" y="16" width="10" height="14">
<path fill-rule="evenodd" clip-rule="evenodd" d="M21.773 27.5307L21.0377 16.0972L14.721 19.7048C14.8765 20.1025 13.2414 27.1508 12.343 29.7594" fill="white"/>
</mask>
<g mask="url(#mask2_97_6508)">
<path d="M9.67807 27.3885C16.7227 28.0288 15.2323 21.683 17.325 19.8769C19.4177 18.0709 11.574 20.1356 11.574 20.1356L9.62427 22.472L9.86943 25.7735" fill="#CFCFD0"/>
</g>
<path d="M21.773 27.5307L21.0377 16.0972L14.721 19.7048C14.8765 20.1025 13.2414 27.1508 12.343 29.7594" stroke="#111111" stroke-width="0.617008" stroke-linecap="round" stroke-linejoin="round"/>
<path d="M21.8907 15.1421C15.7402 15.728 15.0302 8.51611 15.0302 8.51611C14.1627 10.5991 12.1869 12.0081 9.93501 12.1497C8.04286 22.225 13.1321 22.7575 17.3118 20.2663" fill="#F5F6F7"/>
<mask id="mask3_97_6508" style="mask-type:luminance" maskUnits="userSpaceOnUse" x="9" y="8" width="13" height="14">
<path fill-rule="evenodd" clip-rule="evenodd" d="M21.8907 15.1421C15.7402 15.728 15.0302 8.51611 15.0302 8.51611C14.1627 10.5991 12.1869 12.0081 9.93501 12.1497C8.04286 22.225 13.1321 22.7575 17.3118 20.2663" fill="white"/>
</mask>
<g mask="url(#mask3_97_6508)">
<ellipse opacity="0.27" cx="9.52777" cy="17.1669" rx="2.01227" ry="1.49168" transform="rotate(-19.6091 9.52777 17.1669)" fill="#CFCFD0"/>
<ellipse opacity="0.27" cx="16.2712" cy="16.6909" rx="1.47004" ry="1.08972" transform="rotate(-19.6091 16.2712 16.6909)" fill="#CFCFD0"/>
<rect x="10.908" y="13.4922" width="1.05558" height="1.94687" rx="0.395811" transform="rotate(3.7419 10.908 13.4922)" fill="#111111"/>
<rect x="14.8352" y="13.4624" width="1.05561" height="1.94693" rx="0.395811" transform="rotate(3.74395 14.8352 13.4624)" fill="#111111"/>
<path d="M11.3843 12.277C10.289 12.5201 10.5466 13.1253 11.2412 13.0179C11.9358 12.9106 12.0999 12.118 11.3843 12.277Z" fill="#111111"/>
<path d="M15.4194 12.2021C16.4737 12.5859 16.2236 13.1127 15.549 12.9158C14.8743 12.7188 14.7306 11.9514 15.4194 12.2021Z" fill="#111111"/>
<path d="M13.6269 15.5457C13.644 15.9022 13.3321 15.7755 12.9556 15.7935C12.5792 15.8115 12.281 15.9675 12.2637 15.611C12.2658 15.2479 12.5516 14.9498 12.9144 14.9324C13.2771 14.9151 13.5901 15.1844 13.6269 15.5457Z" fill="#CFCFD0"/>
<path d="M11.5605 17.5359C12.1082 20.0944 14.5039 18.9554 14.5051 17.3566C14.5039 17.2739 14.451 17.2008 14.3729 17.1737C13.4899 16.9091 12.5429 16.9558 11.6904 17.306C11.5959 17.3396 11.5405 17.4376 11.5605 17.5359Z" fill="#CFCFD0"/>
<mask id="mask4_97_6508" style="mask-type:luminance" maskUnits="userSpaceOnUse" x="11" y="17" width="4" height="3">
<path fill-rule="evenodd" clip-rule="evenodd" d="M11.5605 17.5359C12.1082 20.0944 14.5039 18.9554 14.5051 17.3566C14.5039 17.2739 14.451 17.2008 14.3729 17.1737C13.4899 16.9091 12.5429 16.9558 11.6904 17.306C11.5959 17.3396 11.5405 17.4376 11.5605 17.5359Z" fill="white"/>
</mask>
<g mask="url(#mask4_97_6508)">
<ellipse opacity="0.29" cx="13.4372" cy="18.9053" rx="1.31159" ry="1.17059" transform="rotate(-20.6847 13.4372 18.9053)" fill="#111111"/>
<path d="M12.0006 17.1092C11.9966 17.2601 12.0249 17.41 12.0835 17.5491C12.6693 17.7234 13.2971 17.6915 13.8622 17.4586C13.8948 17.2631 13.9043 17.0645 13.8906 16.8668L12.1976 17.0071" fill="white"/>
</g>
</g>
<path d="M21.8907 15.1421C15.7402 15.728 15.0302 8.51611 15.0302 8.51611C14.1627 10.5991 12.1869 12.0081 9.93501 12.1497C8.04286 22.225 13.1321 22.7575 17.3118 20.2663" stroke="#111111" stroke-width="0.617008" stroke-linecap="round" stroke-linejoin="round"/>
<path d="M17.7087 19.3776C17.6943 18.5242 17.7615 17.6713 17.9095 16.8306L20.7032 15.4337L20.9096 15.0088C20.9096 15.0088 17.7738 16.0756 17.7352 16.0672C13.7513 16.9786 12.9102 15.5555 12.9102 15.5555C12.9102 15.5555 9.90368 16.03 9.38638 15.0088C7.79038 20.2657 11.4339 25.4755 18.0738 19.8897C18.0585 19.8865 20.9093 18.3408 20.9093 18.3408L17.7087 19.3776Z" fill="white"/>
<path fill-rule="evenodd" clip-rule="evenodd" d="M19.2017 18.7659C18.7258 18.9563 18.238 19.1515 17.7301 19.3426L17.7305 19.3424C17.7342 19.2829 17.7329 19.207 17.7315 19.1248C17.7293 19.0001 17.7269 18.8607 17.7414 18.7411C17.7566 18.5301 17.783 18.3192 17.8127 18.1086C17.8333 17.9618 17.8562 17.8152 17.8792 17.6684C17.9197 17.4092 17.9603 17.1492 17.9887 16.885L20.7646 15.5535C20.79 15.5413 20.8107 15.5211 20.8235 15.4959L20.8255 15.4919L21.0388 15.0706C21.0645 15.0198 21.0572 14.9586 21.0202 14.9153C20.9833 14.872 20.924 14.8551 20.8698 14.8724L20.8651 14.8739L19.272 15.3839L18.475 15.6367L18.0766 15.7612L17.8779 15.8222L17.78 15.8514L17.7317 15.8654C17.7287 15.8659 17.7274 15.8661 17.7274 15.8661C17.7274 15.8662 17.7673 15.8609 17.7778 15.874L17.6925 15.8747C16.8855 16.0569 16.0601 16.1452 15.2327 16.1379C14.8314 16.1296 14.4328 16.0698 14.0467 15.9598C13.6969 15.8741 13.3803 15.687 13.1365 15.422L13.1269 15.4084C13.0687 15.3267 12.9701 15.2838 12.8706 15.2968C12.274 15.3767 11.6714 15.4017 11.0702 15.3714C10.7827 15.3549 10.4976 15.3088 10.2195 15.2339C9.9937 15.1886 9.79398 15.0581 9.66173 14.8696C9.60775 14.7565 9.48995 14.688 9.36493 14.6971C9.23992 14.7062 9.13327 14.791 9.09622 14.9107L9.09351 14.9194C8.68436 16.1853 8.57832 17.5297 8.78393 18.8442C8.98244 20.2347 9.78049 21.4683 10.9674 22.2193C11.283 22.3832 11.6151 22.5133 11.9582 22.6073C12.3026 22.6786 12.654 22.7103 13.0056 22.7016C13.6884 22.6692 14.3611 22.524 14.9965 22.272C16.1942 21.7469 17.3004 21.0339 18.2733 20.16C18.2748 20.1589 18.2781 20.1563 18.2838 20.1516C18.2838 20.1518 18.2836 20.1521 18.2834 20.1526L18.3245 20.1279L18.4099 20.0779L18.5835 19.9769L18.9326 19.7754L19.6269 19.3624L21.0159 18.5359L21.0304 18.5277C21.1291 18.4695 21.1671 18.3456 21.1179 18.2421C21.0687 18.1386 20.9486 18.0897 20.8412 18.1295C20.3024 18.3255 19.7602 18.5424 19.2017 18.7659ZM18.2825 20.1517C18.2794 20.1545 18.2763 20.1572 18.2733 20.16C18.2711 20.1615 18.272 20.1604 18.2739 20.1586C18.2763 20.1563 18.2804 20.1529 18.2825 20.1517ZM18.2825 20.1517C18.2849 20.1495 18.2874 20.1472 18.2899 20.145L18.1428 19.5625C18.213 19.5695 18.2783 19.6014 18.3271 19.6524C18.3966 19.7224 18.4315 19.8197 18.4225 19.9179C18.416 19.9857 18.3883 20.0496 18.3432 20.1005C18.3123 20.1275 18.2941 20.1431 18.2838 20.1516C18.2838 20.1511 18.2833 20.1512 18.2825 20.1517ZM17.6374 18.736C17.6183 18.9628 17.6353 19.1912 17.6876 19.4128C18.062 19.3124 18.4489 19.2147 18.8443 19.1152L18.6292 19.2222L18.2699 19.4086L18.0899 19.5026L17.9987 19.5507L17.9523 19.5754C17.9464 19.5808 17.9461 19.5804 17.9455 19.5797C17.9443 19.578 17.9418 19.5746 17.8608 19.6427L17.8588 19.6348C16.9069 20.4125 15.8424 21.0411 14.7017 21.4992C13.6534 22.0513 12.3993 22.0469 11.3549 21.4874C10.3105 20.9279 9.61199 19.8863 9.49082 18.7077C9.29674 17.6753 9.31746 16.6159 9.54955 15.5951C9.70134 15.6945 9.87188 15.7656 10.0532 15.8029C10.3762 15.8832 10.7067 15.9293 11.0393 15.9403C11.6338 15.9563 12.2285 15.9209 12.8168 15.8347C13.1138 16.1343 13.4922 16.3428 13.9072 16.4327C14.3365 16.5447 14.7784 16.6007 15.222 16.5993C16.0848 16.5888 16.9432 16.4748 17.7789 16.2598L17.7486 16.26C17.78 16.2577 17.811 16.2519 17.8412 16.2427L17.8929 16.2258L17.9943 16.1919L18.1934 16.1236L18.5892 15.9854L19.379 15.7064L20.6374 15.2573L20.6009 15.3356L17.8725 16.7563C17.8467 16.7697 17.8295 16.7952 17.8268 16.8241C17.8082 17.0963 17.7748 17.3698 17.7412 17.6443C17.7229 17.7938 17.7045 17.9437 17.6886 18.0938C17.6656 18.3068 17.6456 18.5207 17.6374 18.736ZM20.6009 15.3356L20.5826 15.375L20.6432 15.3136L20.6009 15.3356ZM20.6374 15.2573L20.9555 15.1438L20.7819 14.9472L20.6374 15.2573ZM17.694 16.2604L17.7486 16.26C17.7304 16.2613 17.7122 16.2614 17.694 16.2604ZM12.8168 15.8347C12.8614 15.8282 12.906 15.8213 12.9506 15.8142L12.6849 15.6891C12.7268 15.7398 12.7708 15.7883 12.8168 15.8347ZM9.54955 15.5951C9.58743 15.4286 9.63093 15.263 9.68004 15.0988L9.11198 15.1482C9.2249 15.329 9.3748 15.4808 9.54955 15.5951ZM17.8608 19.6427C17.8569 19.6459 17.8529 19.6493 17.8487 19.6528C17.727 19.7817 17.7246 19.9825 17.8434 20.1141C17.887 20.1629 17.9433 20.1986 18.0061 20.2172L17.8608 19.6427ZM18.8443 19.1152C18.8716 19.1083 18.899 19.1014 18.9264 19.0945C19.5934 18.9268 20.2835 18.7532 20.9775 18.5529L20.8031 18.1463L19.3532 18.862L18.8443 19.1152Z" fill="#111111"/>
<path d="M20.5455 15.1386C26.8907 12.7579 23.3871 19.9129 19.4158 18.2282L20.5455 15.1386Z" fill="#F5F6F7"/>
<path d="M20.5306 15.1002C21.3123 14.7031 22.1733 14.487 23.0498 14.4678C23.2956 14.4819 23.5351 14.5509 23.7508 14.6697C23.986 14.8116 24.1623 15.0336 24.2471 15.295C24.3662 15.7851 24.2973 16.302 24.0539 16.7438C23.6582 17.6094 22.9374 18.2842 22.0476 18.622C21.1607 18.9524 20.1675 18.8189 19.3993 18.2662C19.3808 18.2516 19.3776 18.2249 19.3921 18.2063C19.4016 18.1945 19.4165 18.1885 19.4315 18.1905C20.2162 18.3145 21.0201 18.1993 21.7383 17.8598C22.4369 17.553 23.0373 17.0594 23.4736 16.4335C23.6766 16.1446 23.7686 15.7923 23.7327 15.4411C23.6347 15.1137 23.3381 14.8859 22.9966 14.8757C22.172 14.7963 21.3399 14.8993 20.5595 15.1773C20.5491 15.1806 20.5378 15.1798 20.5281 15.1748C20.5183 15.1699 20.511 15.1612 20.5076 15.1508C20.5017 15.1306 20.5115 15.109 20.5306 15.1002Z" fill="#111111"/>
<path d="M20.6675 127.566C29.5983 130.158 39.8765 120.542 39.8765 120.542C39.8765 120.542 32.355 43.0283 32.0752 28.01C29.5707 26.6133 26.6472 25.6141 21.8308 25.7011L18.8856 37.8875C18.8856 37.8875 14.4316 104.093 20.6675 127.566Z" fill="white"/>
<path fill-rule="evenodd" clip-rule="evenodd" d="M20.6675 127.566C29.5983 130.158 39.8765 120.542 39.8765 120.542C39.8765 120.542 32.355 43.0283 32.0752 28.01C29.5707 26.6133 26.6472 25.6141 21.8308 25.7011L18.8856 37.8875C18.8856 37.8875 14.4316 104.093 20.6675 127.566Z" stroke="#111111" stroke-width="0.617008" stroke-linecap="round" stroke-linejoin="round"/>
<path d="M4.6492 36.2319C4.43144 67.3949 0.711454 85.9698 1.84987 123.212C6.79899 124.948 11.8721 126.308 17.026 127.281C17.026 127.281 10.7474 29.166 13.3459 26.6133C13.3459 26.6133 7.44605 27.0444 4.64484 29.9674" fill="white"/>
<path d="M4.6492 36.2319C4.43144 67.3949 0.711454 85.9698 1.84987 123.212C6.79899 124.948 11.8721 126.308 17.026 127.281C17.026 127.281 10.7474 29.166 13.3459 26.6133C13.3459 26.6133 7.44605 27.0444 4.64484 29.9674" stroke="#111111" stroke-width="0.617008" stroke-linecap="round" stroke-linejoin="round"/>
<path d="M17.973 50.397C17.973 50.397 17.5772 30.4671 21.5615 25.1211L24.9153 26.1949L21.7206 34.9071L22.9567 38.6315L17.973 50.397Z" fill="white"/>
<path fill-rule="evenodd" clip-rule="evenodd" d="M17.903 48.7853C17.8946 49.3368 17.9154 49.8883 17.9655 50.4375C18.7446 48.6548 19.5885 46.8747 20.4694 45.0166C20.5107 44.9295 20.5521 44.8423 20.5935 44.7549C21.494 42.892 22.3638 40.9365 23.2209 39.0095C23.2541 38.9349 23.2873 38.8603 23.3204 38.7858C23.3574 38.7029 23.363 38.6093 23.3362 38.5226L23.3316 38.5074C23.0777 37.6817 22.808 36.8611 22.5384 36.0405C22.4152 35.6658 22.2921 35.2912 22.1705 34.916C22.9864 32.6958 23.7748 30.4656 24.5632 28.2353C24.7894 27.5952 25.0157 26.9551 25.2426 26.3153L25.2455 26.3071L25.2494 26.2949C25.2764 26.2076 25.2677 26.1131 25.225 26.0323C25.1824 25.9515 25.1093 25.8909 25.022 25.864L21.6573 24.8239L21.6173 24.8114C21.499 24.775 21.3713 24.8265 21.3114 24.9348C21.0131 25.4061 20.7415 25.8937 20.4979 26.3953C20.4302 26.5747 20.3563 26.7525 20.2824 26.9301C20.145 27.2604 20.0077 27.5905 19.9107 27.9307C19.8588 28.1131 19.8048 28.295 19.7509 28.4769C19.65 28.8169 19.5492 29.1568 19.4614 29.4991L19.1137 31.0862C18.723 33.2083 18.4397 35.3488 18.265 37.4996C18.1 39.6475 17.9903 41.7967 17.9359 43.9471C17.9111 45.0227 17.8974 46.0979 17.8948 47.1729L17.903 48.7853ZM20.3373 44.2742C19.6018 46.2424 18.8268 48.3009 17.9811 50.3566C18.0184 50.1032 18.0298 49.8466 18.0151 49.5908L18.0233 48.7852L18.0534 47.1745C18.0827 46.1009 18.122 45.0278 18.1714 43.9551C18.2746 41.8089 18.4348 39.669 18.6522 37.5356C18.883 35.4039 19.1783 33.2796 19.6127 31.1884L19.9829 29.6328C20.0726 29.3077 20.1741 28.9868 20.2755 28.6658C20.3339 28.4812 20.3923 28.2964 20.4485 28.1109C20.547 27.7853 20.6822 27.4768 20.8173 27.1685C20.893 26.9957 20.9686 26.823 21.0378 26.6474C21.239 26.2533 21.4577 25.8684 21.6933 25.4938L24.4617 26.411C24.2627 26.9357 24.0633 27.4603 23.8639 27.9848C23.0069 30.2398 22.1499 32.4947 21.3223 34.7603C21.2892 34.8506 21.2876 34.9493 21.3179 35.0405C21.4608 35.4597 21.6015 35.8796 21.7422 36.2994C22.0023 37.0753 22.2624 37.8511 22.5357 38.6227C21.7838 40.4957 21.0448 42.3374 20.3373 44.2742ZM22.5357 38.6227C22.5514 38.6669 22.5671 38.7111 22.5828 38.7553L22.594 38.4774L22.5461 38.5969C22.5426 38.6055 22.5392 38.6141 22.5357 38.6227ZM24.4617 26.411L24.8095 26.5262L24.5889 26.0752C24.5465 26.1872 24.5041 26.2991 24.4617 26.411ZM21.6933 25.4938C21.7325 25.4316 21.7721 25.3696 21.8122 25.3079L21.4667 25.4188L21.6933 25.4938Z" fill="#111111"/>
<path d="M13.3137 49.6305L9.76553 38.6019L11.6514 35.0269L9.73633 27.2773C10.7792 26.3037 12.1406 25.7426 13.5666 25.6987C13.5666 25.6987 12.4186 44.6925 13.3137 49.6305Z" fill="white"/>
<path fill-rule="evenodd" clip-rule="evenodd" d="M11.2544 43.5508C11.9656 45.61 12.6696 47.6484 13.3236 49.67C13.1975 47.5927 13.2071 45.6657 13.2476 43.6533C13.2619 43.1747 13.2755 42.696 13.289 42.2174C13.3319 40.7037 13.3747 39.1899 13.4443 37.6765L13.9184 25.7196L13.9191 25.7032V25.6831C13.9149 25.4927 13.7572 25.3417 13.5667 25.3458C12.8124 25.3606 12.0687 25.5262 11.3793 25.8326C11.0384 25.9804 10.7108 26.1573 10.4003 26.3614C10.0849 26.5662 9.78945 26.8003 9.51803 27.0607C9.44173 27.1362 9.41126 27.2466 9.43798 27.3507L11.4056 34.9987L9.59898 38.5136C9.57586 38.5586 9.57131 38.6109 9.58631 38.6593C10.133 40.3039 10.6959 41.9338 11.2544 43.5508ZM13.0254 48.1533C13.0868 48.6378 13.1797 49.1178 13.3035 49.5903C12.6174 47.446 11.9836 45.3194 11.3562 43.2146C10.8962 41.6712 10.4397 40.1396 9.96871 38.6215L11.8556 35.1345C11.8819 35.0859 11.8894 35.0293 11.8767 34.9755L11.8756 34.971L10.0772 27.3846C10.2866 27.205 10.5093 27.0414 10.7435 26.8954C11.027 26.7167 11.3254 26.5629 11.6354 26.4356C12.1302 26.2284 12.6546 26.1033 13.1879 26.0644C13.06 27.9306 12.9362 29.7949 12.8461 31.6625C12.7395 33.6579 12.683 35.657 12.6556 37.6561C12.6546 37.9802 12.6531 38.3043 12.6515 38.6284C12.6435 40.3042 12.6355 41.9804 12.7033 43.6571C12.7104 43.8161 12.7172 43.975 12.7241 44.1339C12.7603 44.9756 12.7964 45.8166 12.8691 46.6571C12.8961 47.0608 12.9439 47.4643 12.9917 47.867C13.003 47.9624 13.0144 48.0579 13.0254 48.1533ZM13.1879 26.0644C13.3135 26.0552 13.4395 26.0508 13.5658 26.0512L13.2144 25.6775C13.2056 25.8065 13.1967 25.9354 13.1879 26.0644ZM10.0772 27.3846L10.0343 27.2036L9.95434 27.4934C9.99477 27.4565 10.0357 27.4203 10.0772 27.3846ZM9.96871 38.6215C9.96069 38.5956 9.95266 38.5698 9.94464 38.5439L9.93197 38.6894L9.96871 38.6215Z" fill="#111111"/>
<path d="M28.7686 39.8482L31.7138 46.0712L15.9865 44.3112C13.029 47.907 15.4181 54.7389 15.4181 54.7389C15.4181 54.7389 36.3937 63.7011 42.3907 60.1533C48.2415 56.692 36.404 28.9137 30.9316 27.4189" fill="white"/>
<path d="M28.7686 39.8482L31.7138 46.0712L15.9865 44.3112C13.029 47.907 15.4181 54.7389 15.4181 54.7389C15.4181 54.7389 36.3937 63.7011 42.3907 60.1533C48.2415 56.692 36.404 28.9137 30.9316 27.4189" stroke="#111111" stroke-width="0.617008" stroke-linecap="round" stroke-linejoin="round"/>
<path d="M19.5704 8.61777C19.6235 8.89706 19.7447 9.15891 19.9234 9.38006C20.0043 9.48347 20.1502 9.52181 20.1685 9.64332C20.2017 9.81832 20.2113 9.99696 20.1972 10.1745C20.1963 10.2043 20.178 10.2308 20.1506 10.2423C19.939 10.3259 19.699 10.2907 19.5203 10.1499C19.3517 10.032 19.3453 9.8044 19.3128 9.62612C19.2414 9.27447 19.3046 8.90881 19.4898 8.60148C19.5029 8.58097 19.5301 8.57489 19.5506 8.5879C19.5609 8.59485 19.568 8.60558 19.5704 8.61777Z" fill="#111111"/>
</g>
</svg>
