<svg width="78" height="13" viewBox="0 0 78 13" fill="none" xmlns="http://www.w3.org/2000/svg">
<path d="M11.3047 3.82812H6.82812V13H4.79688V3.82812H0.3125V1.79688H11.3047V3.82812ZM20.7734 7.35156C20.7734 7.63281 20.724 7.9375 20.625 8.26562C20.526 8.58854 20.3646 8.89062 20.1406 9.17188C19.9219 9.44792 19.6328 9.67969 19.2734 9.86719C18.9193 10.0547 18.487 10.1484 17.9766 10.1484H14.3125V8.21875H17.9766C18.2526 8.21875 18.4661 8.13542 18.6172 7.96875C18.7682 7.79688 18.8438 7.58594 18.8438 7.33594C18.8438 7.07031 18.7578 6.86198 18.5859 6.71094C18.4193 6.5599 18.2161 6.48438 17.9766 6.48438H14.3125C14.0365 6.48438 13.8229 6.57031 13.6719 6.74219C13.5208 6.90885 13.4453 7.11719 13.4453 7.36719V10.2031C13.4453 10.474 13.5286 10.6849 13.6953 10.8359C13.8672 10.987 14.0781 11.0625 14.3281 11.0625H17.9766V13H14.3125C14.0312 13 13.7266 12.9505 13.3984 12.8516C13.0755 12.7526 12.7734 12.5938 12.4922 12.375C12.2161 12.151 11.9844 11.862 11.7969 11.5078C11.6094 11.1484 11.5156 10.7135 11.5156 10.2031V7.35156C11.5156 7.07031 11.5651 6.76823 11.6641 6.44531C11.763 6.11719 11.9219 5.8151 12.1406 5.53906C12.3646 5.25781 12.6536 5.02344 13.0078 4.83594C13.3672 4.64844 13.8021 4.55469 14.3125 4.55469H17.9766C18.2578 4.55469 18.5599 4.60417 18.8828 4.70312C19.2109 4.80208 19.513 4.96354 19.7891 5.1875C20.0703 5.40625 20.3047 5.69531 20.4922 6.05469C20.6797 6.40885 20.7734 6.84115 20.7734 7.35156ZM29.5312 6.58594H24.9609C24.6849 6.58594 24.4766 6.65625 24.3359 6.79688C24.1953 6.93229 24.125 7.13281 24.125 7.39844V13H22.0938V7.39844C22.0938 7.04948 22.138 6.73698 22.2266 6.46094C22.3151 6.1849 22.4323 5.94271 22.5781 5.73438C22.7292 5.52083 22.901 5.34115 23.0938 5.19531C23.2865 5.04427 23.487 4.92188 23.6953 4.82812C23.9089 4.73438 24.1224 4.66667 24.3359 4.625C24.5547 4.57812 24.7578 4.55469 24.9453 4.55469H29.5312V6.58594ZM38.4141 13H36.3828V7.39844C36.3828 7.13281 36.3125 6.93229 36.1719 6.79688C36.0312 6.65625 35.8229 6.58594 35.5469 6.58594H32.9062V13H30.875V5.5625C30.875 5.42188 30.901 5.29167 30.9531 5.17188C31.0052 5.04688 31.0781 4.9401 31.1719 4.85156C31.2656 4.75781 31.375 4.6849 31.5 4.63281C31.625 4.58073 31.7578 4.55469 31.8984 4.55469H35.5625C35.8438 4.55469 36.1458 4.60417 36.4688 4.70312C36.7917 4.80208 37.099 4.96094 37.3906 5.17969V4.55469H40.1406C40.3333 4.55469 40.5365 4.57812 40.75 4.625C40.9635 4.66667 41.1745 4.73438 41.3828 4.82812C41.5964 4.92188 41.7995 5.04427 41.9922 5.19531C42.1849 5.34115 42.3542 5.52083 42.5 5.73438C42.6458 5.94271 42.763 6.1849 42.8516 6.46094C42.9401 6.73698 42.9844 7.04948 42.9844 7.39844V13H40.9531V7.39844C40.9531 7.13281 40.8854 6.93229 40.75 6.79688C40.6198 6.65625 40.4167 6.58594 40.1406 6.58594H38.3125C38.3802 6.83594 38.4141 7.10677 38.4141 7.39844V13ZM46.9219 2.82031H44.8906V0.984375H46.9219V2.82031ZM46.9219 13H44.8906V4.55469H46.9219V13ZM58.2344 13H56.2031V8.3125C56.2031 8.04688 56.1562 7.8099 56.0625 7.60156C55.974 7.38802 55.8516 7.20573 55.6953 7.05469C55.5391 6.90365 55.3542 6.78906 55.1406 6.71094C54.9323 6.6276 54.7057 6.58594 54.4609 6.58594H50.9062V13H48.875V5.5625C48.875 5.42188 48.901 5.29167 48.9531 5.17188C49.0052 5.04688 49.0781 4.9401 49.1719 4.85156C49.2656 4.75781 49.375 4.6849 49.5 4.63281C49.625 4.58073 49.7578 4.55469 49.8984 4.55469H54.4766C54.7318 4.55469 55 4.58333 55.2812 4.64062C55.5677 4.69792 55.849 4.79167 56.125 4.92188C56.4062 5.04688 56.6719 5.20833 56.9219 5.40625C57.1771 5.59896 57.401 5.83594 57.5938 6.11719C57.7917 6.39323 57.9479 6.71354 58.0625 7.07812C58.1771 7.44271 58.2344 7.85417 58.2344 8.3125V13ZM61.7109 11.9766C61.7109 12.1172 61.6823 12.25 61.625 12.375C61.5729 12.4948 61.5 12.6016 61.4062 12.6953C61.3177 12.7839 61.2109 12.8542 61.0859 12.9062C60.9661 12.9583 60.8385 12.9844 60.7031 12.9844C60.5625 12.9844 60.4297 12.9583 60.3047 12.9062C60.1849 12.8542 60.0781 12.7839 59.9844 12.6953C59.8958 12.6016 59.8255 12.4948 59.7734 12.375C59.7214 12.25 59.6953 12.1172 59.6953 11.9766C59.6953 11.8411 59.7214 11.7135 59.7734 11.5938C59.8255 11.4688 59.8958 11.362 59.9844 11.2734C60.0781 11.1797 60.1849 11.1068 60.3047 11.0547C60.4297 10.9974 60.5625 10.9688 60.7031 10.9688C60.8385 10.9688 60.9661 10.9974 61.0859 11.0547C61.2109 11.1068 61.3177 11.1797 61.4062 11.2734C61.5 11.362 61.5729 11.4688 61.625 11.5938C61.6823 11.7135 61.7109 11.8411 61.7109 11.9766ZM72.0156 10.2031C72.0156 10.4844 71.9661 10.7891 71.8672 11.1172C71.7682 11.4401 71.6068 11.7422 71.3828 12.0234C71.1641 12.2995 70.875 12.5312 70.5156 12.7188C70.1615 12.9062 69.7292 13 69.2188 13H65.5547C65.2734 13 64.9688 12.9505 64.6406 12.8516C64.3177 12.7526 64.0156 12.5938 63.7344 12.375C63.4583 12.151 63.2266 11.862 63.0391 11.5078C62.8516 11.1484 62.7578 10.7135 62.7578 10.2031C62.7578 9.92188 62.8073 9.61719 62.9062 9.28906C63.0052 8.96094 63.1641 8.65885 63.3828 8.38281C63.6068 8.10156 63.8958 7.86719 64.25 7.67969C64.6094 7.49219 65.0443 7.39844 65.5547 7.39844H69.2188V9.33594H65.5547C65.2786 9.33594 65.0651 9.42188 64.9141 9.59375C64.763 9.76042 64.6875 9.96875 64.6875 10.2188C64.6875 10.4844 64.7734 10.6927 64.9453 10.8438C65.1224 10.9896 65.3307 11.0625 65.5703 11.0625H69.2188C69.4948 11.0625 69.7083 10.9792 69.8594 10.8125C70.0104 10.6458 70.0859 10.4375 70.0859 10.1875V7.35156C70.0859 7.08594 70.0026 6.875 69.8359 6.71875C69.6745 6.5625 69.4688 6.48438 69.2188 6.48438H64.7578V4.55469H69.2188C69.5 4.55469 69.8021 4.60417 70.125 4.70312C70.4531 4.80208 70.7552 4.96354 71.0312 5.1875C71.3125 5.40625 71.5469 5.69531 71.7344 6.05469C71.9219 6.40885 72.0156 6.84115 72.0156 7.35156V10.2031ZM77.4609 13H76.5547C76.263 13 75.9505 12.9505 75.6172 12.8516C75.2891 12.7526 74.9818 12.5911 74.6953 12.3672C74.4089 12.138 74.1719 11.8438 73.9844 11.4844C73.7969 11.1198 73.7031 10.6745 73.7031 10.1484V0.984375H75.7344V10.1484C75.7344 10.3984 75.8125 10.599 75.9688 10.75C76.125 10.8958 76.3203 10.9688 76.5547 10.9688H77.4609V13Z" fill="black"/>
</svg>
